<svg t="1741165724658" class="icon" viewBox="0 0 1024 1024" version="1.1" xmlns="http://www.w3.org/2000/svg" p-id="2792" width="18" height="18"><path d="M397.461896 353.015549l260.402286-69.767065a107.832686 107.832686 0 0 1 131.224871 75.755874l131.258996 489.819738a32.418054 32.418054 0 0 1-22.931508 39.703585l-405.430424 108.634606A32.418054 32.418054 0 0 1 452.282532 974.247841l-131.241934-489.819737a107.832686 107.832686 0 0 1 76.43836-131.412555z" fill="#72E8B8" p-id="2793"></path><path d="M524.284736 955.479494L392.565063 465.284389a107.832686 107.832686 0 0 1 76.267738-132.060915l-71.831583 19.280211a107.832686 107.832686 0 0 0-76.267738 132.060916l131.207809 489.68324a32.418054 32.418054 0 0 0 39.58415 22.86326l71.660962-19.280211A32.418054 32.418054 0 0 1 524.284736 955.479494z" fill="#D7FFEE" p-id="2794"></path><path d="M657.881244 282.548936l-75.073389 20.133318a107.832686 107.832686 0 0 1 132.060916 76.267738l131.207809 489.683241a32.418054 32.418054 0 0 1-22.863259 39.584151l75.073389-20.133318A32.418054 32.418054 0 0 0 921.491212 848.499915L789.94216 358.30481a107.832686 107.832686 0 0 0-132.060916-75.755874z" fill="#49CE95" p-id="2795"></path><path d="M362.63808 76.899037l187.546976-50.247984a32.418054 32.418054 0 0 1 39.703585 22.914446l62.788652 234.348408-250.011447 67.002999-62.788652-234.36547a32.418054 32.418054 0 0 1 22.931508-39.703585z" fill="#E1E8EF" p-id="2796"></path><path d="M337.949173 83.519145l149.634913-40.096014a32.418054 32.418054 0 0 1 39.703586 22.914445l62.788652 234.348408-181.268109 48.575895L337.60793 83.604456z" fill="#FFFFFF" p-id="2797"></path><path d="M945.890063 841.845683l-131.207809-489.683241a133.084644 133.084644 0 0 0-143.492545-97.936648L614.372803 42.996577a58.011255 58.011255 0 0 0-70.807855-40.949121l-187.683473 50.333295a58.011255 58.011255 0 0 0-40.949121 70.978477l56.646285 211.399838a133.596508 133.596508 0 0 0-75.244011 156.630388l131.20781 489.683241a58.011255 58.011255 0 0 0 70.978476 40.949121L904.429078 912.82416a58.011255 58.011255 0 0 0 40.949121-70.978477zM369.360561 102.372803l187.512851-51.186402h1.706213a6.824854 6.824854 0 0 1 6.483611 4.948019l56.13442 209.693625-200.480072 53.745722-20.645182-77.291467a47.773975 47.773975 0 0 0 5.11864 0 48.45646 48.45646 0 1 0-25.081336-93.841736 47.603353 47.603353 0 0 0-4.777398 1.876835l-10.578523-39.58415a6.824854 6.824854 0 0 1 4.606776-8.360446z m526.366829 757.899985a6.654232 6.654232 0 0 1-4.094912 3.071184L485.383071 972.541628a6.824854 6.824854 0 0 1-8.360445-4.777397L345.814817 477.739747a82.410106 82.410106 0 0 1 58.181876-100.837211L664.535476 307.118409a82.751349 82.751349 0 0 1 21.498289-2.900563 82.410106 82.410106 0 0 1 79.338922 61.082439l131.207809 489.683241a6.654232 6.654232 0 0 1-0.853106 5.289262zM246.001334 196.214539a17.062134 17.062134 0 0 0-17.062134-17.062134H102.508788a17.062134 17.062134 0 0 0 0 34.124268h127.283519a17.062134 17.062134 0 0 0 16.209027-17.062134zM241.565179 260.197541L131.343794 324.180543a17.062134 17.062134 0 0 0 17.062134 29.517491L258.627313 290.056275a17.062134 17.062134 0 0 0-17.062134-29.517491z" fill="#3E4454" p-id="2798"></path></svg>
